<?xml version="1.0" standalone="no"?>
<svg xmlns:xlink="http://www.w3.org/1999/xlink" id="wave" style="transform:rotate(0deg); transition: 0.3s" viewBox="0 0 1440 490" version="1.1" xmlns="http://www.w3.org/2000/svg"><defs><linearGradient id="sw-gradient-0" x1="0" x2="0" y1="1" y2="0"><stop stop-color="rgba(232, 248, 251, 1)" offset="0%"/><stop stop-color="rgba(178, 193, 206, 1)" offset="100%"/></linearGradient></defs><path style="transform:translate(0, 0px); opacity:1" fill="url(#sw-gradient-0)" d="M0,196L14.1,163.3C28.2,131,56,65,85,81.7C112.9,98,141,196,169,228.7C197.6,261,226,229,254,253.2C282.4,278,311,359,339,343C367.1,327,395,212,424,171.5C451.8,131,480,163,508,220.5C536.5,278,565,359,593,392C621.2,425,649,408,678,359.3C705.9,310,734,229,762,163.3C790.6,98,819,49,847,81.7C875.3,114,904,229,932,261.3C960,294,988,245,1016,187.8C1044.7,131,1073,65,1101,81.7C1129.4,98,1158,196,1186,204.2C1214.1,212,1242,131,1271,114.3C1298.8,98,1327,147,1355,187.8C1383.5,229,1412,261,1440,302.2C1468.2,343,1496,392,1525,375.7C1552.9,359,1581,278,1609,220.5C1637.6,163,1666,131,1694,130.7C1722.4,131,1751,163,1779,147C1807.1,131,1835,65,1864,40.8C1891.8,16,1920,33,1948,57.2C1976.5,82,2005,114,2019,130.7L2032.9,147L2032.9,490L2018.8,490C2004.7,490,1976,490,1948,490C1920,490,1892,490,1864,490C1835.3,490,1807,490,1779,490C1750.6,490,1722,490,1694,490C1665.9,490,1638,490,1609,490C1581.2,490,1553,490,1525,490C1496.5,490,1468,490,1440,490C1411.8,490,1384,490,1355,490C1327.1,490,1299,490,1271,490C1242.4,490,1214,490,1186,490C1157.6,490,1129,490,1101,490C1072.9,490,1045,490,1016,490C988.2,490,960,490,932,490C903.5,490,875,490,847,490C818.8,490,791,490,762,490C734.1,490,706,490,678,490C649.4,490,621,490,593,490C564.7,490,536,490,508,490C480,490,452,490,424,490C395.3,490,367,490,339,490C310.6,490,282,490,254,490C225.9,490,198,490,169,490C141.2,490,113,490,85,490C56.5,490,28,490,14,490L0,490Z"/></svg>